<svg xmlns="http://www.w3.org/2000/svg" viewBox="0 0 80 80" width="80" height="80">
  <defs>
    <linearGradient id="jg-body" x1="0" y1="0" x2="0" y2="1">
      <stop offset="0%" stop-color="#a07050"/>
      <stop offset="100%" stop-color="#3a2010"/>
    </linearGradient>
    <linearGradient id="jg-metal" x1="0" y1="0" x2="0" y2="1">
      <stop offset="0%" stop-color="#888"/>
      <stop offset="100%" stop-color="#2a2a2a"/>
    </linearGradient>
  </defs>
  <path d="M40 8 L66 18 L72 38 L66 60 L40 72 L14 60 L8 38 L14 18 Z" fill="url(#jg-body)" stroke="#1a0d04" stroke-width="1.5"/>
  <rect x="22" y="22" width="14" height="10" fill="url(#jg-metal)" stroke="#1a0d04" stroke-width="1"/>
  <rect x="44" y="20" width="20" height="8" fill="url(#jg-metal)" stroke="#1a0d04" stroke-width="1"/>
  <rect x="20" y="40" width="22" height="14" fill="url(#jg-metal)" stroke="#1a0d04" stroke-width="1"/>
  <rect x="46" y="44" width="18" height="10" fill="url(#jg-metal)" stroke="#1a0d04" stroke-width="1"/>
  <circle cx="28" cy="27" r="1.4" fill="#ff5500"/>
  <circle cx="32" cy="27" r="1.4" fill="#ff5500"/>
  <circle cx="55" cy="48" r="1.4" fill="#ffaa00"/>
  <path d="M14 18 L8 12 M66 18 L72 12 M14 60 L8 66 M66 60 L72 66" stroke="#5a3a1f" stroke-width="2" stroke-linecap="round"/>
  <path d="M22 22 L24 24 L34 24 L36 22 M44 20 L46 22 L62 22 L64 20" stroke="#fff" stroke-width="0.5" opacity="0.3"/>
  <circle cx="40" cy="40" r="3" fill="#ff3300" opacity="0.4"/>
</svg>
