<svg xmlns="http://www.w3.org/2000/svg" viewBox="0 0 414 896" width="414" height="896" preserveAspectRatio="xMidYMid slice">
  <defs>
    <radialGradient id="s2f-bg" cx="0.5" cy="0.5" r="0.8">
      <stop offset="0%" stop-color="#2a0a08"/>
      <stop offset="100%" stop-color="#0e0204"/>
    </radialGradient>
  </defs>
  <rect width="414" height="896" fill="url(#s2f-bg)"/>
  <g fill="#ffd5a0">
    <circle cx="48" cy="60" r="0.9"/>
    <circle cx="180" cy="100" r="1.1"/>
    <circle cx="340" cy="80" r="0.7"/>
    <circle cx="80" cy="200" r="1.2"/>
    <circle cx="220" cy="260" r="0.8"/>
    <circle cx="370" cy="320" r="1"/>
    <circle cx="60" cy="380" r="0.9"/>
    <circle cx="200" cy="420" r="1.1"/>
    <circle cx="120" cy="500" r="0.8"/>
    <circle cx="380" cy="510" r="1.2"/>
    <circle cx="40" cy="600" r="0.9"/>
    <circle cx="220" cy="650" r="1"/>
    <circle cx="310" cy="710" r="0.7"/>
    <circle cx="100" cy="770" r="1.1"/>
    <circle cx="370" cy="820" r="0.9"/>
    <circle cx="160" cy="850" r="0.8"/>
  </g>
  <g fill="#ffae6c" opacity="0.8">
    <circle cx="280" cy="50" r="0.5"/>
    <circle cx="20" cy="160" r="0.6"/>
    <circle cx="160" cy="200" r="0.4"/>
    <circle cx="380" cy="240" r="0.5"/>
    <circle cx="260" cy="380" r="0.6"/>
    <circle cx="80" cy="450" r="0.4"/>
    <circle cx="340" cy="480" r="0.5"/>
    <circle cx="180" cy="580" r="0.6"/>
    <circle cx="40" cy="720" r="0.5"/>
    <circle cx="240" cy="800" r="0.4"/>
  </g>
  <g fill="#ff7c4a" opacity="0.6">
    <circle cx="112" cy="90" r="0.4"/>
    <circle cx="306" cy="180" r="0.4"/>
    <circle cx="46" cy="290" r="0.4"/>
    <circle cx="380" cy="400" r="0.4"/>
    <circle cx="140" cy="540" r="0.4"/>
    <circle cx="270" cy="620" r="0.4"/>
    <circle cx="80" cy="690" r="0.4"/>
    <circle cx="356" cy="760" r="0.4"/>
  </g>
</svg>
